<?xml version="1.0" encoding="UTF-8"?>
<svg id="Layer_24" xmlns="http://www.w3.org/2000/svg" version="1.1" viewBox="0 0 1024 1024">
  <!-- Generator: Adobe Illustrator 29.0.1, SVG Export Plug-In . SVG Version: 2.1.0 Build 192)  -->
  <defs>
    <style>
      .st0 {
        fill: none;
        stroke: #c1272d;
      }

      .st0, .st1 {
        stroke-miterlimit: 10;
        stroke-width: 15px;
      }

      .st1 {
        fill: #c1272d;
        stroke: #fff;
      }
    </style>
  </defs>
  <path class="st1" d="M550.22,364.35c-18.83-42.12-1.39-93.55,30.76-126.63,32.16-33.08,76.25-51.44,119.67-67.03,13.02,43.93,3.82,93.84-24.02,130.23s-73.61,58.34-126.41,63.43Z"/>
  <path class="st1" d="M501.21,369.42c52.59,12.25,102.78-27.57,156.38-27.93,66.24-1.32,128.98,40.91,159.71,98.62,23.24,42.91,31.17,92.89,27.77,141.3-7.12,92.55-53.57,178.38-107.05,252.86-21.77,28.62-52.62,53.88-89.72,56.8-40.89,3.95-74.87-29.9-113.99-32.69-13.63-1.01-26.92,2.31-39.69,7.16-19.97,7.63-39.38,18-60.79,20.54-65.19,8.53-123.63-34.33-158.73-86.02-58.51-83.83-76.75-191.55-60.11-292.27,6.96-39.49,16.87-81,42.81-112.4,17.76-21.33,42.08-36.53,68.13-45.73,58.46-22.84,119.96,5.86,175.09,19.71l.19.04Z"/>
  <path class="st0" d="M535.11,371.53c.73-86.08-27.18-172.17-78.27-241.45"/>
</svg>