<?xml version="1.0" encoding="UTF-8"?>
<svg id="Layer_26" xmlns="http://www.w3.org/2000/svg" version="1.1" viewBox="0 0 1024 1024">
  <!-- Generator: Adobe Illustrator 29.0.1, SVG Export Plug-In . SVG Version: 2.1.0 Build 192)  -->
  <defs>
    <style>
      .st0 {
        fill: #f15a24;
        stroke: #fff;
        stroke-miterlimit: 10;
        stroke-width: 15px;
      }
    </style>
  </defs>
  <path class="st0" d="M434.46,209.07l291.82.89c48.41.15,102.8,2.79,135.53,38.46,24.65,26.87,30.27,67,23.39,102.81-6.88,35.8-24.63,68.45-41.94,93.66l4.17,274.92c.29,19.3.27,39.79-9.86,56.21-18.38,29.78-59.78,32.68-94.77,32.26-86.78-1.05-173.55-2.1-260.33-3.16"/>
  <path class="st0" d="M172.16,711.44c8.22,58.23,16.49,71.37,25.75,80.29,17.67,17.03,45.3,19.08,99.85,22.47,10.19.63,54.42,3.14,119.43-4.64,46.59-5.57,70.3-8.49,84.42-21.56,24.65-22.82,25.89-60.72,25.38-94.32-1.03-68.3-2.06-136.59-3.09-204.89-.29-19.29-.54-38.9,4.73-57.45,5.95-20.93,18.59-39.34,25.92-59.82,15-41.89,5.3-91.64-24.34-124.83-29.64-33.19-77.98-48.43-121.3-38.25-28.71,6.75-55.35,23.72-84.85,23.57-23.45-.12-45.3-11.1-68.1-16.54-33.26-7.95-69.86-3.51-98.83,14.67-28.96,18.18-49.27,50.56-50.24,84.75-1.26,44.23,27.47,82.96,41.83,124.81,10.69,31.18,10.88,63.45,14.46,126.99,3.27,58.14.72,86.16,8.99,144.75Z"/>
</svg>