<?xml version="1.0" encoding="UTF-8"?>
<svg id="Layer_12" xmlns="http://www.w3.org/2000/svg" version="1.1" viewBox="0 0 1024 1024">
  <!-- Generator: Adobe Illustrator 29.0.1, SVG Export Plug-In . SVG Version: 2.1.0 Build 192)  -->
  <defs>
    <style>
      .st0 {
        fill: #f15a24;
        stroke: #fff;
        stroke-miterlimit: 10;
        stroke-width: 15px;
      }
    </style>
  </defs>
  <path class="st0" d="M201.56,533.26c-30.31,54.76-43.12,119.03-36.13,181.23,4.13,36.78,18.89,77.27,53.11,91.36,32.89,13.54,70.04-2.65,100.65-20.75,75.25-44.5,141.78-102.09,207.85-159.34,117.92-102.18,239.57-209.35,301.63-352.51,11.3-26.07,20.42-56.27,8.96-82.28-11.74-26.66-41.69-40.43-70.31-45.87-57.93-11.01-120.27,3.67-168.49,41.59-27.69-12.23-61.1-10.61-87.47,4.24-26.38,14.85-45.09,42.58-48.99,72.59-34.78-14.91-78-7.54-105.88,18.06-27.88,25.59-38.91,68.02-27.02,103.95-37.01-.88-74.05,15.95-97.75,44.39-23.7,28.45-33.55,67.92-30.17,103.34Z"/>
  <path class="st0" d="M325.78,385.14c51.32,11.98,100.7,32.19,145.69,59.63"/>
  <path class="st0" d="M454.01,260.41c48.38,11.61,94.21,33.71,133.44,64.32"/>
  <path class="st0" d="M202.01,534.59c43.25,10.07,84.5,28.64,120.71,54.34"/>
  <path class="st0" d="M600.48,187.04c15.32,6.47,29.61,15.36,42.17,26.24"/>
</svg>