<?xml version="1.0" encoding="UTF-8"?>
<svg id="Layer_14" xmlns="http://www.w3.org/2000/svg" version="1.1" viewBox="0 0 1024 1024">
  <!-- Generator: Adobe Illustrator 29.0.1, SVG Export Plug-In . SVG Version: 2.1.0 Build 192)  -->
  <defs>
    <style>
      .st0 {
        fill: #29abe2;
        stroke: #fff;
        stroke-miterlimit: 10;
        stroke-width: 15px;
      }
    </style>
  </defs>
  <path class="st0" d="M341.12,105.74c69.83-8.63,135.62,32.35,174.51,88.73,54.32,77.57,70.91,181.3,46.53,273.51-18.39,70.6-63.99,137.4-128.6,170.52-162.56,79.45-298.96-70.24-300.17-231.88-4.1-127.48,72.59-283,207.56-300.86l.17-.02Z"/>
  <path class="st0" d="M890.09,519.38c35.15,60.95,23.03,137.51-13.75,195.28-50.28,80.24-139.36,135.93-233.79,149.39-72.19,10.56-151.48-5.42-207.15-52.02-136.49-118.77-51.76-302.71,96.65-366.78,115.81-53.43,288.93-43.38,357.95,73.98l.08.15Z"/>
</svg>