<?xml version="1.0" encoding="UTF-8"?>
<svg id="Layer_10" xmlns="http://www.w3.org/2000/svg" version="1.1" viewBox="0 0 1024 1024">
  <!-- Generator: Adobe Illustrator 29.0.1, SVG Export Plug-In . SVG Version: 2.1.0 Build 192)  -->
  <defs>
    <style>
      .st0 {
        fill: #fff;
        stroke: #c1272d;
      }

      .st0, .st1 {
        stroke-miterlimit: 10;
        stroke-width: 15px;
      }

      .st1 {
        fill: #c1272d;
        stroke: #fff;
      }
    </style>
  </defs>
  <path class="st1" d="M629.21,808.53c11.48,34.78-1.71,76.23-31.17,97.99-29.46,21.76-72.96,22.16-102.82.96-29.86-21.21-43.82-62.4-32.99-97.39,10.83-34.99,45.62-61.1,82.24-61.72,36.62-.63,72.83,24.09,84.74,60.17Z"/>
  <path class="st1" d="M391.82,687.28c-14.88,32.41-5.48,74.13,21.64,97.28,27.11,23.16,69.54,26,99.68,6.95,30.14-19.05,45.79-58.32,37.34-92.96-8.45-34.64-40.18-62.21-75.62-66.09-35.45-3.88-66.21,18.18-83.04,54.82Z"/>
  <path class="st1" d="M701.93,685.16c15.3,32.71,6.35,75-20.73,98.9-27.08,23.9-69.95,27.59-100.85,8.88-30.89-18.71-47.5-58.21-39.49-93.43,8.01-35.22,39.88-63.59,75.76-67.72,35.88-4.13,68.7,17.89,85.3,53.37Z"/>
  <path class="st1" d="M715.02,507.78c-33.93-9.99-73.52,3.9-93.76,32.92-20.24,29.01-19.61,70.96,1.48,99.35,21.1,28.39,61.08,41.1,94.7,30.1,33.62-11,58.35-44.89,58.58-80.26.23-35.37-23.58-71.09-61-82.11Z"/>
  <path class="st1" d="M391.12,507.7c33.07-9.86,71.79,4.21,90.87,32.96s17.01,69.85-4.8,96.59c-21.82,26.74-61.61,37.02-93.67,24.25-32.06-12.77-53.89-47.54-51.52-81.97,2.37-34.43,29.43-62.99,59.13-71.84Z"/>
  <path class="st1" d="M543.13,676.99c-35.55-1.59-68.67-27.73-78.47-61.94-9.81-34.21,4.43-73.92,33.74-94.11,29.31-20.19,71.49-19.33,99.95,2.03,28.46,21.36,41.08,61.62,29.9,95.4-11.18,33.78-45.33,58.56-85.12,58.63Z"/>
  <path class="st0" d="M751.6,180.01c-51.04,11.84-98.46,38.86-134.65,76.74-36.2,37.88-61.04,86.47-70.55,137.99"/>
  <path class="st1" d="M486.8,241.63c-21.1-44.48-63.86-78.04-112.08-87.98-48.22-9.94-100.76,3.99-136.28,36.73,22.04,44.45,65.5,77.66,114.19,87.23,48.68,9.58,101.49-4.69,138.72-37.48"/>
  <path class="st1" d="M440.68,365.67c-34.72,10.69-60.74,45.01-61.66,81.33-.92,36.32,23.34,71.91,57.48,84.34,34.14,12.43,75.6.76,98.25-27.64s24.78-71.43,5.06-101.94c-19.72-30.51-60.33-48.03-99.13-36.09Z"/>
  <path class="st0" d="M573.91,309.73c-9.93-21.59-25.69-40.17-44.75-52.77-19.06-12.6-41.34-19.18-63.28-18.67"/>
  <path class="st1" d="M612.93,365.03c-36.55,4.71-68.47,34.56-75.6,70.72-7.14,36.16,11.04,75.9,43.07,94.14,32.02,18.24,75.48,13.62,102.94-10.96,27.46-24.57,36.87-67.25,22.28-101.1-14.59-33.84-52.26-58.02-92.69-52.81Z"/>
</svg>