<?xml version="1.0" encoding="UTF-8"?>
<svg id="Layer_34" xmlns="http://www.w3.org/2000/svg" version="1.1" viewBox="0 0 1024 1024">
  <!-- Generator: Adobe Illustrator 29.0.1, SVG Export Plug-In . SVG Version: 2.1.0 Build 192)  -->
  <defs>
    <style>
      .st0 {
        fill: #8cc63f;
        stroke: #fff;
      }

      .st0, .st1 {
        stroke-miterlimit: 10;
        stroke-width: 15px;
      }

      .st1 {
        fill: none;
        stroke: #8cc63f;
      }
    </style>
  </defs>
  <path class="st0" d="M536.59,506.91c-13.12-54.52,11.18-118.61,54.23-154.53,43.05-35.92,100.43-51.05,156.47-52.64,56.05-1.59,111.62,9.26,163.61,16.36-16.82,43.28-33.84,86.95-59.54,125.63-25.7,38.68-61.12,72.5-104.94,87.88-67.71,23.76-141.93.5-209.84-22.69"/>
  <path class="st0" d="M388,469.28c18.11-44.25,2.23-97.64-31.18-131.85-33.41-34.2-81.34-51.18-128.92-55.94-47.58-4.76-95.48,1.57-142.88,7.89,17.05,39.93,34.27,80.19,59.18,115.75,24.9,35.56,58.39,66.54,99.35,80.92,48.2,16.92,99.48,7.46,144.45-16.78"/>
  <path class="st1" d="M533.04,505.55c-21.97,9.01-115.92,50.4-164.95,157.09-40.02,87.09-26.7,166.75-20.95,193.75"/>
  <path class="st0" d="M389.04,454.49c12.65,10.91,25.31,21.82,37.96,32.73"/>
  <path class="st1" d="M395.58,468.45c5.61,1.71,27.36,9.05,40.58,31.42,18.36,31.07,4.04,63.68,2.62,66.76"/>
</svg>