<?xml version="1.0" encoding="UTF-8"?>
<svg id="Layer_18" xmlns="http://www.w3.org/2000/svg" version="1.1" viewBox="0 0 1024 1024">
  <!-- Generator: Adobe Illustrator 29.0.1, SVG Export Plug-In . SVG Version: 2.1.0 Build 192)  -->
  <defs>
    <style>
      .st0 {
        fill: #662d91;
        stroke: #fff;
        stroke-miterlimit: 10;
        stroke-width: 15px;
      }
    </style>
  </defs>
  <path class="st0" d="M133.77,448.72c-4.68,47.85-7.26,105.78,33.02,139.56,27.29,22.84,63.46,23.29,97.7,27.42,16.65,1.99,33.22,5.09,49.12,10.47,41.75,13.95,76.35,41.97,109.55,70.38,40.13,34.94,81.75,70.02,133.12,86.47,121.43,40.44,261.44-15.78,311.53-135.75,30.36-70.42,27.04-138.16,2.85-209.73"/>
  <path class="st0" d="M137.72,414.95c23.38-68.73,87.14-119.15,152.19-146.8,74.66-31.34,157.64-37.88,238.28-36.15,66.12,1.81,132.54,11.11,193.29,37.66,73.14,31.3,138.1,91.37,157.59,170.48,48.17,184.49-182.37,311.47-339.19,252.85-17.45-6.16-34.14-14.34-49.99-23.92-69.26-42.01-123.2-109.5-201.49-132.47-36.27-11.67-75.73-13.12-110.5-29.15-38.93-17.83-53.22-51.39-40.24-92.31l.06-.19Z"/>
  <path class="st0" d="M179.61,424.17c-2.92,19.5,7.72,36.9,24.94,45.85,25.01,13.22,54.4,11.91,81.82,16.32,22.58,3.24,44.52,10.21,64.68,20.96,53.29,28.02,92.96,75.45,141.71,109.55,13.41,9.43,27.51,17.9,42.29,24.98,104.27,52.31,244.89,19.93,288.24-95.35,27.77-76.61-4.94-150.38-69.78-195.62-120.03-83.35-281.91-98.55-418.94-51.31-50.15,17.77-100.7,43.91-135.41,84.93-10.03,12.35-17.48,25.15-19.52,39.53l-.02.17Z"/>
  <path class="st0" d="M624.05,467.48c15.88-4.62,34.28-5.3,50.69-1.78,21.37,4.76,41.02,15.9,46.3,36.24,3.44,14.32-4.68,28.49-16.27,36.94-24.47,17.67-60.07,19.75-88.36,8.81-48.27-20.06-41.88-66.1,7.43-80.14l.21-.06Z"/>
</svg>