<?xml version="1.0" encoding="UTF-8"?>
<svg id="Layer_22" xmlns="http://www.w3.org/2000/svg" version="1.1" viewBox="0 0 1024 1024">
  <!-- Generator: Adobe Illustrator 29.0.1, SVG Export Plug-In . SVG Version: 2.1.0 Build 192)  -->
  <defs>
    <style>
      .st0 {
        fill: #c1272d;
        stroke: #fff;
        stroke-miterlimit: 10;
        stroke-width: 15px;
      }
    </style>
  </defs>
  <path class="st0" d="M960.56,346.79c-299.04-1.89-598.08-3.77-897.11-5.66,4.91,154.58,93.37,304.37,227.25,381.8,133.88,77.43,308.81,79.1,443.29,2.73,134.48-76.37,222.89-228.47,226.57-378.87Z"/>
  <path class="st0" d="M147.38,360.26c3.01,126.18,76.21,248.43,186.03,310.65,109.81,62.23,252.3,62.2,362.09-.06,109.79-62.26,182.95-184.53,185.92-310.72"/>
  <path class="st0" d="M765.4,432.79c-11.8-3.33-23.6-6.67-35.4-10"/>
  <path class="st0" d="M298.81,421.94c-12.07,1.28-23.88,5.01-34.49,10.89"/>
  <path class="st0" d="M359.63,516.35c-9.08,11.2-18.15,22.39-27.23,33.59"/>
  <path class="st0" d="M459.48,573.53c-3.03,13.31-6.05,26.63-9.08,39.94"/>
  <path class="st0" d="M580.21,617.1l-10.89-35.4"/>
  <path class="st0" d="M670.98,521.79c9.68,9.38,19.36,18.76,29.05,28.14"/>
</svg>