<?xml version="1.0" encoding="UTF-8"?>
<svg id="Layer_6" xmlns="http://www.w3.org/2000/svg" version="1.1" viewBox="0 0 1024 1024">
  <!-- Generator: Adobe Illustrator 29.0.1, SVG Export Plug-In . SVG Version: 2.1.0 Build 192)  -->
  <defs>
    <style>
      .st0 {
        fill: #8cc63f;
        stroke: #fff;
        stroke-miterlimit: 10;
        stroke-width: 15px;
      }
    </style>
  </defs>
  <path class="st0" d="M601.13,721.55c-109.48,48.25-207.65,227.5-240.09,241.53-16.15,6.98-75.99-19.16-117.6-37.47-12.8-5.63-26.84-12.52-31.73-25.63-5.79-15.52,3.77-32.08,12.11-46.39,49.31-84.63,66.56-187.45,47.56-283.54l54.72-3.14c14,63.16,18.89,128.33,14.46,192.87,19.79-35.08,37.4-71.38,52.71-108.63l60,23.27c-18.22,36.58-36.45,73.16-54.67,109.74,49.18-37.05,100.14-71.76,152.62-103.97"/>
  <path class="st0" d="M541.03,664.24c-37.29,21.29-85.21,22.72-123.7,3.68s-66.44-57.99-72.15-100.55c-27.48,6.59-56.84,5.12-83.52-4.19-42.07-14.68-75.77-47.93-98.63-86.19-28.45-47.62-41.81-104.93-32.88-159.68,8.93-54.75,41.14-106.16,88.86-134.45,47.72-28.28,110.51-31.33,163.57-5.51,48-64.78,127.78-104.78,208.4-104.49s160.11,40.86,207.65,105.98c47.54,65.12,61.95,153.19,37.65,230.07,68.26,48.02,94.53,145.28,65.01,223.35-29.52,78.07-109.31,132.66-192.61,137.93-35.91,2.27-73.01-4.06-103.91-22.5-30.9-18.44-54.87-49.84-61.56-85.29-.34.34-.54.9-2.18,1.84Z"/>
</svg>