<?xml version="1.0" encoding="UTF-8"?>
<svg id="Layer_8" xmlns="http://www.w3.org/2000/svg" version="1.1" viewBox="0 0 1024 1024">
  <!-- Generator: Adobe Illustrator 29.0.1, SVG Export Plug-In . SVG Version: 2.1.0 Build 192)  -->
  <defs>
    <style>
      .st0 {
        fill: #8cc63f;
        stroke: #fff;
        stroke-miterlimit: 10;
        stroke-width: 15px;
      }
    </style>
  </defs>
  <path class="st0" d="M696.4,309.88c49.09,23.72,79.98,80.47,73.24,134.58-7.12,57.18-50.11,102.67-93.01,141.14-159.46,142.95-350.31,250.7-555.08,313.4,80.15-194.35,173.41-387.61,317.11-541.06,34.53-36.88,73.71-72.34,122.22-86.43,48.52-14.09,108.26-.75,135.51,38.37Z"/>
  <path class="st0" d="M457.3,336.04c50.18,28.71,102.58,59.55,131.95,109.34"/>
  <path class="st0" d="M586.88,661.56c-27.17-37.27-60.01-70.41-97.04-97.9"/>
  <path class="st0" d="M281.46,573.13c29.97,16.63,56.45,39.51,77.26,66.74"/>
  <path class="st0" d="M323.25,820.85c-18.53-22.55-40.16-42.54-64.1-59.24"/>
  <path class="st0" d="M697.06,312.98c-51.16-53.44-64.14-139.8-30.95-205.92,38.31,30.34,62.98,77.29,66.21,126.06,27.9-68,105.06-115.78,178.57-115.71-6.92,33.72-19.9,68.04-36.61,98.14-16.71,30.1-44.79,55.87-78.82,61.04,52.67,4.23,103.16,30.88,136.37,71.97-50.43,43.96-143.23,60.04-234.78-35.58Z"/>
</svg>