<?xml version="1.0" encoding="UTF-8"?>
<svg id="Layer_30" xmlns="http://www.w3.org/2000/svg" version="1.1" viewBox="0 0 1024 1024">
  <!-- Generator: Adobe Illustrator 29.0.1, SVG Export Plug-In . SVG Version: 2.1.0 Build 192)  -->
  <defs>
    <style>
      .st0 {
        fill: #fff;
      }

      .st0, .st1 {
        stroke: #fff;
        stroke-miterlimit: 10;
        stroke-width: 15px;
      }

      .st1 {
        fill: #29abe2;
      }
    </style>
  </defs>
  <path class="st1" d="M824.88,368.34c8.25,87.99,9.2,176.66,2.84,264.8-1.76,24.46-4.8,50.64-20.87,69.17-16.75,19.32-43.6,25.72-68.6,31.07-152.68,32.67-305.36,65.33-458.03,98-18.05,3.86-37.21,7.67-54.61,1.5-17.4-6.16-31.19-26.38-23.61-43.21,20.97.46,40.49-18.16,41.01-39.13.53-20.97-18.03-40.55-39-41.14.2-64.81.41-129.62.61-194.42"/>
  <path class="st1" d="M825.02,370.13c-205.41,44.67-410.81,89.34-616.22,134,62.48-59.33,124.97-118.66,187.45-177.99,20.74,15.69,47.47,25.04,73.01,20.17,25.54-4.87,48.52-26.23,50.42-52.16,1.9-25.93-21.94-52.16-47.69-48.58,57.54-45.94,139.53-59.17,208.6-33.65,69.07,25.52,122.76,88.88,144.43,158.2Z"/>
  <path class="st0" d="M290.52,542.89c33.24-6.83,69.69,17.17,76.57,50.4,6.87,33.23-17.07,69.72-50.29,76.64-33.22,6.92-69.74-16.97-76.71-50.18-6.97-33.21,16.83-69.96,50.43-76.86Z"/>
  <path class="st0" d="M575.74,602.33c21.92.25,42.01,19.18,43.55,41.04s-15.67,43.44-37.34,46.77c-21.66,3.33-44.58-12.06-49.67-33.38-5.1-21.32,7.23-54.85,43.46-54.44Z"/>
  <path class="st0" d="M684.29,437.93c24.56-1.14,48.05,19.75,49.79,44.28s-18.56,48.52-43.04,50.87c-24.48,2.35-48.97-17.36-51.91-41.77-2.95-24.41,15.9-52.02,45.16-53.38Z"/>
</svg>