<?xml version="1.0" encoding="UTF-8"?>
<svg id="Layer_20" xmlns="http://www.w3.org/2000/svg" version="1.1" viewBox="0 0 1024 1024">
  <!-- Generator: Adobe Illustrator 29.0.1, SVG Export Plug-In . SVG Version: 2.1.0 Build 192)  -->
  <defs>
    <style>
      .st0 {
        fill: #662d91;
        stroke: #fff;
        stroke-miterlimit: 10;
        stroke-width: 15px;
      }
    </style>
  </defs>
  <path class="st0" d="M365.85,605.43c-30.81,30.14-61.38,60.57-92.31,90.57-2.23,1.87-4.11,3.06-6.58,3.26-3.24.35-7.11-2.56-10.37-5.11-5.4-4.12-11.68-7.1-18.31-8.84-16.9-4.55-36.4-.6-48.71,12.25-25.09,26.14-16.44,72.6,19.8,83.08,13.21,4.37,27.53,2.68,40.01-2.71,5.64-2.07,2.57,4.78,1.85,8.1-10.58,40.58,24.03,76.96,64.89,62.83,31.52-10.38,39.28-50.5,17.98-74.37-2.73-3.18-5.91-6.84-4.37-11,.75-2.32,3.05-4.94,4.95-6.95,30.08-31.95,60.16-63.89,90.24-95.84"/>
  <path class="st0" d="M448.69,665.42c-44.59-6.58-74.64-41.15-77.16-86.02-5.49-79.51,86.25-232.8,136.36-295.83,27.88-35.49,59.32-69.54,98.07-93.15,53.53-33.59,124.06-40.25,180.74-10.84,65.61,32.17,103.51,109.77,88.42,181.27-9.22,48.4-38.68,90.64-72.77,125.5-71.3,71.1-160.11,124.93-253.09,161.85-31.36,12.4-67.62,22.57-100.38,17.23l-.18-.03Z"/>
</svg>