<?xml version="1.0" encoding="UTF-8"?>
<svg id="Layer_16" xmlns="http://www.w3.org/2000/svg" version="1.1" viewBox="0 0 1024 1024">
  <!-- Generator: Adobe Illustrator 29.0.1, SVG Export Plug-In . SVG Version: 2.1.0 Build 192)  -->
  <defs>
    <style>
      .st0 {
        fill: #f15a24;
        stroke: #fff;
        stroke-miterlimit: 10;
        stroke-width: 15px;
      }
    </style>
  </defs>
  <path class="st0" d="M872.4,454.5c38.78,25.68,67.27,66.47,78.03,111.72,10.77,45.25,3.7,94.49-19.35,134.89-7.11,12.45-17.12,25.03-31.26,27.41-20.93,3.52-37.6-16.13-51-32.6-22.91-28.15-49.96-52.94-80.01-73.31"/>
  <path class="st0" d="M283.84,615.89c-34.45,19.02-65.13,44.84-89.77,75.53-8.85,11.02-17.9,23.37-31.47,27.33-16.29,4.76-34.1-4.86-43.8-18.79-9.7-13.92-12.97-31.24-15.28-48.05-5.1-37.1-6.62-75.51,4.06-111.4,10.68-35.89,35.16-69.15,69.96-82.99"/>
  <path class="st0" d="M413.47,597.03c-38.1-.67-72.55,36.6-109.25,26.33-22.89-6.41-36.67-29.08-48.18-49.88-17.79-32.15-35.58-64.3-53.37-96.45-14.7-26.57-29.79-57.83-18.4-85.98,6-14.83,18.52-25.98,31.44-35.42,33.42-24.42,72.39-41.18,113.1-48.65"/>
  <path class="st0" d="M722.12,313.36c40.73,13.05,79.78,31.36,115.86,54.32,14.14,9,28.5,19.5,35.12,34.89,10.79,25.07-2.23,53.56-15.94,77.17-22.96,39.55-48.62,77.53-76.75,113.58-11.46,14.69-24.75,29.96-42.96,33.9-12.45,2.69-25.34-.39-37.71-3.46-25.85-6.42-51.7-12.83-77.55-19.25"/>
  <path class="st0" d="M349.01,258.77c-15.25,10.89-12.63,33.93-8.17,52.14,22.69,92.77,50.1,184.38,82.12,274.35,6.81,19.13,16.23,40.57,35.65,46.5,21.35,6.51,43.3-9.31,65.61-8.7,19.34.53,37.16,13.4,56.44,11.93,14.98-1.14,28.19-11.02,36.95-23.22,8.76-12.2,13.77-26.63,18.66-40.84,25.85-75.05,51.71-150.11,77.56-225.16,5.27-15.31,10.62-31.46,7.67-47.38-4.84-26.15-30.08-43.09-54.29-54.11-99.69-45.35-227.78-50.09-318.21,14.49Z"/>
</svg>