<?xml version="1.0" encoding="utf-8"?>
<!-- Generator: Adobe Illustrator 26.5.0, SVG Export Plug-In . SVG Version: 6.00 Build 0)  -->
<svg version="1.1" id="레이어_1" xmlns="http://www.w3.org/2000/svg" xmlns:xlink="http://www.w3.org/1999/xlink" x="0px"
	 y="0px" viewBox="0 0 288 288" style="enable-background:new 0 0 288 288;" xml:space="preserve">
<style type="text/css">
	.st0{fill:none;stroke:#2B2B2B;stroke-width:4;stroke-linecap:round;stroke-linejoin:round;stroke-miterlimit:10;}
</style>
<g>
	<circle class="st0" cx="144.75" cy="141.56" r="93"/>
	<line class="st0" x1="105.12" y1="181.51" x2="79.96" y2="206.87"/>
	<line class="st0" x1="209.53" y1="76.25" x2="182.87" y2="103.13"/>
	<g>
		<path class="st0" d="M159.55,103.43c0,13.24-14.8,23.98-14.8,23.98s-14.8-10.74-14.8-23.98c0-13.24,14.8-23.98,14.8-23.98
			S159.55,90.19,159.55,103.43z"/>
		<g>
			<path class="st0" d="M155.93,115.17c2.94-1.57,6.31-2.46,9.88-2.46h9.06v9.06c0,11.66-9.43,21.11-21.07,21.11h-9.05v-7.47"/>
			<path class="st0" d="M133.58,115.18c-2.95-1.59-6.32-2.48-9.9-2.48h-9.05v9.07c0,11.66,9.43,21.1,21.07,21.1h9.05"/>
		</g>
		<g>
			<path class="st0" d="M176.9,139.41v7.55c0,12.44-10.07,22.53-22.49,22.53h-9.66v-18.61"/>
			<path class="st0" d="M112.59,139.4v7.56c0,12.44,10.07,22.53,22.49,22.53h9.67"/>
		</g>
		<g>
			<path class="st0" d="M144.75,177.49v20.9h9.66c12.42,0,22.49-10.09,22.49-22.53v-8.3"/>
			<path class="st0" d="M112.59,167.56v8.3c0,12.44,10.07,22.53,22.49,22.53h9.67"/>
		</g>
		<line class="st0" x1="114.62" y1="104.71" x2="114.62" y2="72.22"/>
		<line class="st0" x1="129.68" y1="85.37" x2="129.68" y2="67.93"/>
		<line class="st0" x1="144.75" y1="72.72" x2="144.75" y2="62.56"/>
		<line class="st0" x1="159.81" y1="85.35" x2="159.81" y2="67.93"/>
		<line class="st0" x1="174.87" y1="104.71" x2="174.87" y2="72.22"/>
		<line class="st0" x1="144.75" y1="198.39" x2="144.75" y2="221.93"/>
	</g>
</g>
</svg>
