<?xml version="1.0" encoding="utf-8"?>
<!-- Generator: Adobe Illustrator 26.5.0, SVG Export Plug-In . SVG Version: 6.00 Build 0)  -->
<svg version="1.1" id="레이어_1" xmlns="http://www.w3.org/2000/svg" xmlns:xlink="http://www.w3.org/1999/xlink" x="0px"
	 y="0px" viewBox="0 0 288 288" style="enable-background:new 0 0 288 288;" xml:space="preserve">
<style type="text/css">
	.st0{fill:none;stroke:#2B2B2B;stroke-width:4;stroke-linecap:round;stroke-linejoin:round;stroke-miterlimit:10;}
</style>
<g>
	<path class="st0" d="M86.76,177.37c0,0,14.52-16.77,18.97-21.98c9.04-10.55,16.29-14.39,28.61-15.17
		c10.25-0.65,26.07,4.98,31.32,15.17l4.44,11.58"/>
	<path class="st0" d="M162,182.84c-10.83,9.79-39.8,10.74-50.62,0.95"/>
	<path class="st0" d="M165.36,154.52l-18.43-49.1c-0.72-1.93-2.88-2.98-4.92-2.39c-5.85,1.67-11.97,1.87-16.96,0.2l-6.03,2.67
		c-4.36,1.82-9.38,1.44-13.4-1.02L86.87,93.4c-3.54-2.16-4.57-6.72-2.29-10.13L99.6,60.79c2.58-3.88,7.43-5.71,12.03-4.59
		l35.94,8.84c5.82,1.43,10.99,4.7,14.69,9.29l46.11,57.17c13.21,15.48,19.98,35.21,18.98,55.31l-0.26,5.18
		c-0.17,3.47-2.22,6.58-5.38,8.19c-8.22,4.18-24.09,12.24-30.25,15.33c-23.09,11.56-56.22,6.03-92.58-0.94
		c-5.25-1-10.56,1.44-13.1,6.03l-6.23,11.27"/>
	<path class="st0" d="M118.78,143.78c-7.47,0-15.95-3.79-21.01-6.42c-8.14-4.22-20.85-8.98-36.4-3.12"/>
</g>
</svg>
