<?xml version="1.0" encoding="UTF-8"?>
<svg id="Layer_28" xmlns="http://www.w3.org/2000/svg" version="1.1" viewBox="0 0 1024 1024">
  <!-- Generator: Adobe Illustrator 29.0.1, SVG Export Plug-In . SVG Version: 2.1.0 Build 192)  -->
  <defs>
    <style>
      .st0 {
        fill: #662d91;
        stroke: #fff;
        stroke-miterlimit: 10;
        stroke-width: 15px;
      }
    </style>
  </defs>
  <path class="st0" d="M664.18,194.04c-5.88,5.97-10.25,13.47-13.81,21.31-75.05,186.73-223.65,342.65-407.29,425.44-22.17,10.55-47.82,21.97-61.74,42.4-13.87,19.51-11.86,45.99,2.99,64.81,11.6,15.42,29.28,26.36,48.4,28.52,200.08.5,421.05-259.23,513.09-427.07,13.97-27.4,25.61-57.5,24.13-88.75-2.06-41.42-32.81-85.21-77-80.72-10.78,1.23-21.05,6.12-28.64,13.93l-.14.14Z"/>
  <path class="st0" d="M796.95,339.29c-7,4.6-12.86,11-18,17.92-112.75,166.69-290.91,287.76-487.87,329.94-23.9,5.64-51.38,11.39-69.3,28.42-17.68,16.15-21.29,42.45-10.75,63.98,8.09,17.52,23.06,31.94,41.3,38.09,195.47,42.7,466.27-164.56,591.64-309.2,19.43-23.84,37.17-50.8,42.31-81.66,6.73-40.92-14.1-90.21-58.24-95.15-10.8-1.07-21.87,1.54-30.93,7.57l-.16.11Z"/>
</svg>