<?xml version="1.0" encoding="utf-8"?>
<!-- Generator: Adobe Illustrator 26.5.0, SVG Export Plug-In . SVG Version: 6.00 Build 0)  -->
<svg version="1.1" id="레이어_1" xmlns="http://www.w3.org/2000/svg" xmlns:xlink="http://www.w3.org/1999/xlink" x="0px"
	 y="0px" viewBox="0 0 288 288" style="enable-background:new 0 0 288 288;" xml:space="preserve">
<style type="text/css">
	.st0{fill:none;stroke:#2B2B2B;stroke-width:4;stroke-linecap:round;stroke-linejoin:round;stroke-miterlimit:10;}
</style>
<g>
	<g>
		<polyline class="st0" points="104.27,58.54 67.37,58.54 67.37,212.33 154.32,212.33 		"/>
		<polyline class="st0" points="164.64,58.54 201.53,58.54 201.58,120.98 		"/>
		<path class="st0" d="M153.48,52.43h-5.45c-1.69-5.92-7.12-10.26-13.58-10.26c-6.46,0-11.89,4.34-13.58,10.26h-5.45
			c-7.32,0-13.26,5.94-13.26,13.26v9.5h64.57v-9.5C166.74,58.37,160.8,52.43,153.48,52.43z"/>
		<g>
			<g>
				<g>
					<line class="st0" x1="127.68" y1="108.47" x2="170.72" y2="108.47"/>
					<polyline class="st0" points="98.26,108.54 103.3,115.57 116.35,101.36 					"/>
				</g>
			</g>
			<g>
				<g>
					<line class="st0" x1="127.68" y1="136.39" x2="170.72" y2="136.39"/>
					<polyline class="st0" points="98.26,136.46 103.3,143.5 116.35,129.28 					"/>
				</g>
			</g>
			<g>
				<g>
					<line class="st0" x1="152.4" y1="164.32" x2="127.68" y2="164.32"/>
					<polyline class="st0" points="98.26,164.39 103.3,171.42 116.35,157.21 					"/>
				</g>
			</g>
		</g>
	</g>
	<g>
		<g>
			<path class="st0" d="M202.02,131.75c-7.67,7.6-6.34,21.47-6.34,21.47s13.76,1.54,21.43-6.06c7.64-7.57,7.07-13.88,6.34-21.47
				C223.45,125.7,209.69,124.15,202.02,131.75z"/>
		</g>
		<path class="st0" d="M155.92,181.46c0.63-15.54,11.91-25.07,25.76-22.74c3.14,0.53,5.83,1.39,8.27,2.72
			c4.18,2.28,9.28,2.28,13.45,0c2.43-1.33,5.12-2.19,8.27-2.72c13.85-2.33,25.13,7.19,25.76,22.74
			c0.58,14.48-5.46,28.32-12.25,37.76c-5.6,7.79-11.33,12.6-17.49,12.33c-1.97-0.09-3.88-0.5-5.72-1.19c-3.4-1.28-7.18-1.28-10.57,0
			c-1.84,0.69-3.75,1.11-5.72,1.19c-6.16,0.27-11.89-4.54-17.49-12.33C161.38,209.78,155.33,195.95,155.92,181.46z"/>
	</g>
</g>
</svg>
