<?xml version="1.0" encoding="utf-8"?>
<!-- Generator: Adobe Illustrator 26.5.0, SVG Export Plug-In . SVG Version: 6.00 Build 0)  -->
<svg version="1.1" id="레이어_1" xmlns="http://www.w3.org/2000/svg" xmlns:xlink="http://www.w3.org/1999/xlink" x="0px"
	 y="0px" viewBox="0 0 288 288" style="enable-background:new 0 0 288 288;" xml:space="preserve">
<style type="text/css">
	.st0{fill:none;stroke:#2B2B2B;stroke-width:4;stroke-linecap:round;stroke-linejoin:round;stroke-miterlimit:10;}
</style>
<g>
	<circle class="st0" cx="143.75" cy="143.56" r="93"/>
	<line class="st0" x1="107.15" y1="180.45" x2="78.96" y2="208.87"/>
	<line class="st0" x1="208.53" y1="78.25" x2="172.4" y2="114.68"/>
	<g>
		<path class="st0" d="M130.7,88.29v9.2c0,3.73-0.96,7.4-2.78,10.66l-7.9,14.1c-3.19,5.7-4.87,12.12-4.87,18.66v65.6
			c0,3.99,3.23,7.22,7.22,7.22h42.76c3.99,0,7.22-3.23,7.22-7.22v-65.6c0-6.53-1.68-12.96-4.87-18.66l-7.9-14.1
			c-1.82-3.26-2.78-6.93-2.78-10.66v-9.2"/>
		<path class="st0" d="M126.5,79.77v8.52h34.49v-8.52c0-3.52-2.85-6.38-6.38-6.38h-21.74C129.35,73.4,126.5,76.25,126.5,79.77z"/>
	</g>
</g>
</svg>
