<?xml version="1.0" encoding="utf-8"?>
<!-- Generator: Adobe Illustrator 26.5.0, SVG Export Plug-In . SVG Version: 6.00 Build 0)  -->
<svg version="1.1" id="레이어_1" xmlns="http://www.w3.org/2000/svg" xmlns:xlink="http://www.w3.org/1999/xlink" x="0px"
	 y="0px" viewBox="0 0 288 288" style="enable-background:new 0 0 288 288;" xml:space="preserve">
<style type="text/css">
	.st0{fill:none;stroke:#2B2B2B;stroke-width:4;stroke-linecap:round;stroke-linejoin:round;stroke-miterlimit:10;}
	.st1{fill:none;stroke:#2B2B2B;stroke-width:6;stroke-linecap:round;stroke-linejoin:round;stroke-miterlimit:10;}
</style>
<g>
	<line class="st0" x1="148.78" y1="137.72" x2="99.63" y2="137.72"/>
	<line class="st0" x1="147.83" y1="159.72" x2="99.63" y2="159.72"/>
	<line class="st0" x1="147.83" y1="181.72" x2="99.63" y2="181.72"/>
	<g>
		<g>
			<g>
				<g>
					<g>
						<g>
							<polyline class="st0" points="205.33,126.31 205.33,53.56 65.33,53.56 65.33,218.56 147.84,218.56 							"/>
						</g>
					</g>
				</g>
			</g>
		</g>
	</g>
	<g>
		<path class="st0" d="M232.75,234.18h-68.17c-3.72,0-6.74-3.02-6.74-6.74v-86.52c0-3.72,3.02-6.74,6.74-6.74h68.17
			c3.72,0,6.74,3.02,6.74,6.74v86.52C239.49,231.16,236.47,234.18,232.75,234.18z"/>
		<path class="st0" d="M220.6,171.72h-43.87c-2.12,0-3.84-1.72-3.84-3.84v-12.01c0-2.12,1.72-3.84,3.84-3.84h43.87
			c2.12,0,3.84,1.72,3.84,3.84v12.01C224.44,170,222.72,171.72,220.6,171.72z"/>
		<g>
			<line class="st1" x1="176.66" y1="192.14" x2="176.66" y2="192.14"/>
			<line class="st1" x1="198.66" y1="192.14" x2="198.66" y2="192.14"/>
			<line class="st1" x1="220.66" y1="192.14" x2="220.66" y2="192.14"/>
		</g>
		<g>
			<line class="st1" x1="176.66" y1="210.14" x2="176.66" y2="210.14"/>
			<line class="st1" x1="198.66" y1="210.14" x2="198.66" y2="210.14"/>
			<line class="st1" x1="220.66" y1="210.14" x2="220.66" y2="210.14"/>
		</g>
	</g>
	<g>
		<g>
			<line class="st0" x1="88.96" y1="78.75" x2="88.96" y2="119.37"/>
			<line class="st0" x1="105.73" y1="78.75" x2="88.96" y2="104.07"/>
			<line class="st0" x1="108.25" y1="119.37" x2="94.64" y2="96.17"/>
		</g>
		<path class="st0" d="M135.01,91.33v-4.59c0-4.41-3.58-7.99-7.99-7.99h-4.98c-4.41,0-7.99,3.58-7.99,7.99v24.64
			c0,4.41,3.58,7.99,7.99,7.99h4.98c4.41,0,7.99-3.58,7.99-7.99v-5.43"/>
		<g>
			<polyline class="st0" points="162.99,119.37 155.84,78.75 149.17,78.75 142.02,119.37 			"/>
			<line class="st0" x1="160.34" y1="105.11" x2="144.66" y2="105.11"/>
		</g>
		<g>
			<polyline class="st0" points="189.7,119.37 171.25,119.37 171.25,78.75 			"/>
		</g>
	</g>
</g>
</svg>
