<?xml version="1.0" encoding="UTF-8"?>
<svg id="Layer_32" xmlns="http://www.w3.org/2000/svg" version="1.1" viewBox="0 0 1024 1024">
  <!-- Generator: Adobe Illustrator 29.0.1, SVG Export Plug-In . SVG Version: 2.1.0 Build 192)  -->
  <defs>
    <style>
      .st0 {
        fill: #29abe2;
        stroke: #fff;
        stroke-miterlimit: 10;
        stroke-width: 15px;
      }
    </style>
  </defs>
  <path class="st0" d="M488.45,949.35c55.11-14.09,106.66-34.71,160.37-53.44,20.73-7.23,42.18-15.34,57.09-31.45,24.04-25.98,24.91-65.18,24.39-100.57-1.52-104.43-3.04-208.87-4.55-313.3l.41-16.61c-81.97,25.82-157.25,45.36-239.22,71.19-28.29-61.58-61.01-121.19-95.44-182.18-32.38,34.73-62.22,71.83-89.2,110.9"/>
  <path class="st0" d="M486.95,505.17l.96,444.18c-30.8-14.13-64.66-20.08-96.57-31.48-31.91-11.4-63.57-30.06-78.53-60.47-11.27-22.92-11.63-49.47-11.72-75.01-.39-116.27.22-232.54,1.84-348.8,59.06,30.08,120.42,55.64,184.02,71.59Z"/>
  <path class="st0" d="M546.22,844.06c48.33-13,95.92-28.74,141.08-47.01-.49-84.5-.97-168.99,2.94-252.4-48.58,14.74-97.15,29.49-145.73,44.23l-1.77.55c.59,86.2,1.16,168.89,1.75,255.09l1.73-.46Z"/>
  <path class="st0" d="M567.38,320.33c54.74-1.89,82.69,70.29,38.18,104.38-28.8,21.54-66,7.11-79.34-24.78-14.74-32.95,2.34-76.78,40.97-79.59h.19Z"/>
  <path class="st0" d="M628.76,241.16c30.47,65.29,61.89,130.14,97.4,192.82l-238.26,69.38-94.96-177.82"/>
  <path class="st0" d="M437.11,557.65c-17.91,6.56-35.83,13.13-53.74,19.69"/>
  <path class="st0" d="M436.03,620.58c-32.99-11.96-65.99-23.93-98.98-35.89"/>
  <path class="st0" d="M404.33,608.56c-19.86-28.47-39.71-56.93-59.57-85.4"/>
  <path class="st0" d="M429.32,649.42c.89,14.09.89,30.24.89,49.81-27.57-11.25-55.66-20.01-83.61-31.13"/>
  <path class="st0" d="M428.86,744.86c-27.8-7.18-57.35-15.89-84.1-25.06"/>
  <path class="st0" d="M433.01,786.9c-28.4-10.05-56.81-20.1-85.21-30.16,14.03,20.68,30.75,39.54,49.6,55.95-18.06,1.6-35.77,7.1-51.56,16.02,28.69,9.68,57.39,19.37,86.08,29.05"/>
  <path class="st0" d="M627.97,240.28c-80.81,20.94-159.45,53.45-235.81,82.7-5.46-28.13-10.71-67.32,8.04-88.99,10.48-12.11,26.19-18.09,41.29-23.43,53.17-18.82,107.1-35.47,161.63-49.89,7.53-1.99,16.53-3.63,22.32,1.59,4.96,4.47,5.28,12.01,5.23,18.68-.13,19.68-.26,39.36-2.7,59.34Z"/>
</svg>