<?xml version="1.0" encoding="utf-8"?>
<!-- Generator: Adobe Illustrator 26.5.0, SVG Export Plug-In . SVG Version: 6.00 Build 0)  -->
<svg version="1.1" id="레이어_1" xmlns="http://www.w3.org/2000/svg" xmlns:xlink="http://www.w3.org/1999/xlink" x="0px"
	 y="0px" viewBox="0 0 288 288" style="enable-background:new 0 0 288 288;" xml:space="preserve">
<style type="text/css">
	.st0{fill:none;stroke:#2B2B2B;stroke-width:4;stroke-linecap:round;stroke-linejoin:round;stroke-miterlimit:10;}
</style>
<g>
	<g>
		<path class="st0" d="M197.32,105.69c-10.4-15.47-43.18-15.22-71.09-5.88c-27.9,9.34-45.73,31.24-39.82,48.92
			c5.91,17.68,46.8,30.29,66.11,8.09c10.66-12.26,19.75-21.5,36.44-28.32C197.73,124.93,204.19,115.9,197.32,105.69z"/>
		<path class="st0" d="M85.29,141.72v21.1h0.01c0,2.38,0.36,4.74,1.12,7.02c5.91,17.68,46.8,30.29,66.11,8.09
			c10.66-12.26,19.75-21.5,36.44-28.32c6.14-2.51,11.14-7.7,11.22-14.09h0.01v-21.1"/>
		<line class="st0" x1="126.88" y1="159.68" x2="98.56" y2="131.34"/>
		<line class="st0" x1="146.89" y1="148.17" x2="113.35" y2="114.61"/>
		<line class="st0" x1="163.73" y1="133.5" x2="135.58" y2="105.34"/>
		<line class="st0" x1="182.19" y1="120.44" x2="163.1" y2="101.34"/>
	</g>
	<g>
		<g>
			<ellipse class="st0" cx="142.75" cy="141.56" rx="89.96" ry="90"/>
			<line class="st0" x1="206.09" y1="78.18" x2="192.86" y2="91.42"/>
			<line class="st0" x1="94.47" y1="189.87" x2="79.4" y2="204.94"/>
		</g>
	</g>
</g>
</svg>
