<?xml version="1.0" encoding="utf-8"?>
<!-- Generator: Adobe Illustrator 26.5.0, SVG Export Plug-In . SVG Version: 6.00 Build 0)  -->
<svg version="1.1" id="레이어_1" xmlns="http://www.w3.org/2000/svg" xmlns:xlink="http://www.w3.org/1999/xlink" x="0px"
	 y="0px" viewBox="0 0 288 288" style="enable-background:new 0 0 288 288;" xml:space="preserve">
<style type="text/css">
	.st0{fill:none;stroke:#2B2B2B;stroke-width:4;stroke-linecap:round;stroke-linejoin:round;stroke-miterlimit:10;}
</style>
<g>
	<path class="st0" d="M192.77,111.42c4.87-4.04,7.97-10.1,7.97-16.88c0-12.15-9.94-22-22.2-22c-1.33,0-2.62,0.14-3.89,0.36
		c0.11-0.92,0.19-1.85,0.19-2.8c0-12.83-10.49-23.22-23.43-23.22c-12.94,0-23.43,10.4-23.43,23.22c0,0.95,0.08,1.88,0.19,2.8
		c-1.26-0.22-2.56-0.36-3.89-0.36c-12.26,0-22.2,9.85-22.2,22c0,6.78,3.1,12.85,7.97,16.88c-4.8,3.5-7.92,9.12-7.92,15.47
		c0,4.13,1.33,7.95,3.56,11.08l-0.01,0c19.87,23.78,32.53,50.05,31.7,84.9h14.03h14.03c-0.84-34.85,11.83-61.11,31.7-84.9l-0.01,0
		c2.24-3.13,3.56-6.95,3.56-11.08C200.69,120.54,197.57,114.92,192.77,111.42z"/>
	<g>
		<path class="st0" d="M194.29,68.96c4.95-2.38,10.82-2.84,16.41-0.82c11.04,3.99,16.79,16.1,12.86,27.06
			c-0.29,0.81-0.64,1.58-1.02,2.34c1.14,0.2,2.29,0.48,3.42,0.89c10.46,3.77,15.91,15.24,12.18,25.63
			c-2.08,5.79-6.59,10.02-11.98,11.97c3.01,4.47,3.95,10.23,2,15.66c-1.26,3.53-3.57,6.39-6.44,8.37l0.02,0.01
			c-20.58,12.06-37.28,27.25-47.96,49.94"/>
		<path class="st0" d="M108.53,68.96h-0.01c-4.95-2.38-10.81-2.84-16.41-0.82c-11.04,3.99-16.79,16.1-12.85,27.06
			c0.29,0.81,0.64,1.58,1.02,2.34c-1.15,0.2-2.3,0.48-3.43,0.89c-10.45,3.77-15.91,15.24-12.18,25.63
			c2.09,5.79,6.59,10.02,11.99,11.97c-3.02,4.47-3.96,10.23-2.01,15.66c1.27,3.53,3.57,6.39,6.44,8.37l-0.01,0.01
			c20.58,12.06,37.28,27.25,47.96,49.94"/>
	</g>
	<line class="st0" x1="151.41" y1="77.43" x2="151.41" y2="222.87"/>
	<polyline class="st0" points="125.25,95.76 151.41,121.69 177.57,95.76 	"/>
	<polyline class="st0" points="125.25,129.98 151.41,155.91 177.57,129.98 	"/>
</g>
</svg>
