<?xml version="1.0" encoding="utf-8"?>
<!-- Generator: Adobe Illustrator 26.5.0, SVG Export Plug-In . SVG Version: 6.00 Build 0)  -->
<svg version="1.1" id="레이어_1" xmlns="http://www.w3.org/2000/svg" xmlns:xlink="http://www.w3.org/1999/xlink" x="0px"
	 y="0px" viewBox="0 0 288 288" style="enable-background:new 0 0 288 288;" xml:space="preserve">
<style type="text/css">
	.st0{fill:none;stroke:#2B2B2B;stroke-width:4;stroke-linecap:round;stroke-linejoin:round;stroke-miterlimit:10;}
	.st1{fill:none;stroke:#2B2B2B;stroke-width:8;stroke-linecap:round;stroke-linejoin:round;stroke-miterlimit:10;}
</style>
<g>
	<circle class="st0" cx="143.75" cy="139.56" r="93"/>
	<line class="st0" x1="101" y1="182.66" x2="78.96" y2="204.87"/>
	<line class="st0" x1="208.53" y1="74.25" x2="180.01" y2="103"/>
	<path class="st0" d="M3311.75,1175.31c0-13.15-10.7-41.68-23.89-41.68c-13.19,0-23.89,28.53-23.89,41.68s10.7,23.82,23.89,23.82
		C3301.06,1199.13,3311.75,1188.46,3311.75,1175.31z"/>
	<g>
		<path class="st0" d="M165.34,125.3c-0.15-0.29-0.3-0.57-0.45-0.85h-64.9v0c0,17.12,13.86,31,30.96,31h15.45
			C161.88,155.45,172.33,139.12,165.34,125.3z"/>
		<path class="st0" d="M174.44,177.42c-2.43,1.82-7.88,7.28-8.49,12.75c0,0,0.55,6.65,3.64,9.71c10.64-0.62,24.29-7.6,28.26-16.45"
			/>
		<path class="st0" d="M174.44,165.28c-0.39,2.89-0.6,6.07-0.58,8.99c0.02,2.59,1.21,5.06,3.37,6.5c6.59,4.39,17.02,7.18,21.86,1.48
			c0,0,1.66-1.82,2.81-6.96c0.6-2.69,1.07-6.28,1.09-10.99c0.01-2.03-0.16-4.67-0.71-7.25c-0.55-2.59-1.47-5.12-2.99-6.94"/>
		<path class="st0" d="M159.39,155.18c4.36,2.09,9.36,6.04,11.78,8.01c1.57,1.27,2.92,2.17,4.94,2.19
			c8.26,0.07,19.5-5.48,22.71-13.51c2.38-5.96-2.69-13.33-4.46-15.51c-7.74-9.62-17.58-11.79-29.48-11.9"/>
		<path class="st0" d="M165.75,190.65c-8.02-2.36-26.56-3.96-32.88-2.9c0.55,8.66,5.56,16.47,13.37,20.13
			c7.32-0.36,17.3-3.73,23.36-7.98"/>
		<g>
			<path class="st0" d="M140.61,175c0.03-6.09,2.92-15.26,11.08-20.17"/>
		</g>
		<g>
			<path class="st0" d="M129.09,175c0.04-5.84,2.69-14.51,10.1-19.54"/>
		</g>
		<g>
			<path class="st0" d="M117.57,175c0.04-5.89,2.73-14.68,10.32-19.69"/>
		</g>
		<path class="st0" d="M167.27,98.81l-8.56,5.8c-9.04,6.14-21.15,4.01-27.91-4.58c-6.05-7.69-15.67-12.42-26.36-11.68
			c-15.36,1.06-27.45,13.17-28.51,28.55c-1.24,18,12.98,32.99,30.69,32.99h6.55"/>
		<line class="st1" x1="117.85" y1="132.2" x2="117.85" y2="132.2"/>
	</g>
</g>
</svg>
