<?xml version="1.0" encoding="UTF-8"?>
<svg id="Layer_2" xmlns="http://www.w3.org/2000/svg" version="1.1" viewBox="0 0 1024 1024">
  <!-- Generator: Adobe Illustrator 29.0.1, SVG Export Plug-In . SVG Version: 2.1.0 Build 192)  -->
  <defs>
    <style>
      .st0 {
        fill: #c1272d;
        stroke: #fff;
        stroke-miterlimit: 10;
        stroke-width: 15px;
      }
    </style>
  </defs>
  <path class="st0" d="M799.19,481.22c28.1,78.68,13.99,170.35-33.68,238.96-47.67,68.62-126.94,113.42-210,122.38-83.07,8.96-168.72-17.09-234.99-67.98-55.04-42.27-97.3-101.78-115.81-168.67-17.97-64.93-13.08-135.95,13.61-197.81,26.97-62.51,76.22-115.35,137.21-145.61,60.99-30.26,133.3-37.47,198.75-18.72,64.6,18.5,120.16,60.59,166.94,108.82,39.49,40.71,64.72,91.55,77.96,128.63Z"/>
  <path class="st0" d="M620.54,267.96c32.12-58.19,91.89-100.3,157.82-111.54,7.94,17.87,13.4,36.83,16.07,54.51-51.23,8.26-96.53,46.39-113.4,95.46,35.2,6.93,67.29,28.43,87.09,58.35,19.8,29.91,27.05,67.86,19.68,102.97-31.26-33.89-68.32-62.41-109.08-83.97,16.24,45.59,3.4,100.16-31.47,133.72-.41-55.05-12.44-109.98-35.07-160.16-58.36-1.15-116.9,19.09-162.08,56.05,18.09-49.8,60.69-90.01,111.45-105.2-33.4-28.61-74.41-48.25-117.64-56.33,19.54-27.16,57.95-35.01,90.59-27.64s60.95,27,86.05,43.79Z"/>
</svg>