<?xml version="1.0" encoding="utf-8"?>
<!-- Generator: Adobe Illustrator 26.5.0, SVG Export Plug-In . SVG Version: 6.00 Build 0)  -->
<svg version="1.1" id="레이어_1" xmlns="http://www.w3.org/2000/svg" xmlns:xlink="http://www.w3.org/1999/xlink" x="0px"
	 y="0px" viewBox="0 0 288 288" style="enable-background:new 0 0 288 288;" xml:space="preserve">
<style type="text/css">
	.st0{fill:none;stroke:#2B2B2B;stroke-width:4;stroke-linecap:round;stroke-linejoin:round;stroke-miterlimit:10;}
</style>
<g>
	<g>
		<path class="st0" d="M103.16,200.37c-13.3,0-24.16-10.64-24.42-23.94c-0.23-11.72-0.56-24.71-0.95-31.33
			c-0.28-4.69-3.21-20.74-4.14-34.92c-0.36-5.57,1.42-10.84,4.7-14.94"/>
		<path class="st0" d="M131.57,109.24c-1.23,13.21-2.61,28.74-3.04,35.85c-0.22,3.71-0.42,9.41-0.59,15.77"/>
		<path class="st0" d="M160.24,130.82l3.47-11.39c3.75-16.26-4.98-31.22-18.69-31.18c-7.6,0.02-13.67,2.53-17.58,6.78l-0.53-0.62
			c-12.62-14.57-35.24-14.51-47.77,0.11l-0.44,0.51c-3.9-4.25-9.96-6.76-17.57-6.78c-13.71-0.04-22.43,14.92-18.68,31.18l8.63,28.3
			c0.87,3.52,1.32,7.11,1.32,10.73v17.19c0,2.97,0.65,5.94,2.08,8.54c3.26,5.94,8.68,8.67,14.01,8.67c2.07,0,4.11-0.42,6.02-1.22
			c4.04-1.69,8.77-0.74,11.99,2.24c4.36,4.02,10.18,6.49,16.58,6.49c2.14,0,4.21-0.27,6.19-0.79"/>
		<path class="st0" d="M90.6,48.36c0,0,13.75,9.18,14.33,35.22"/>
	</g>
	<g>
		<path class="st0" d="M164.97,135.74c-22.57,26.07-49.63,64.2-58.38,83.97c0,0-5.64,11.55-0.63,16.57
			c5.03,5.03,16.57-0.63,16.57-0.63c19.77-8.75,57.9-35.81,83.97-58.38c12.89-11.16,13.52-30.94,1.47-42.99l0,0
			C195.91,122.22,176.12,122.86,164.97,135.74z"/>
		<line class="st0" x1="175.03" y1="145.14" x2="181.91" y2="152.01"/>
		<line class="st0" x1="146.69" y1="180.73" x2="150.53" y2="184.58"/>
		<line class="st0" x1="130.21" y1="214.41" x2="134.05" y2="218.26"/>
		<line class="st0" x1="184.24" y1="182.95" x2="178.07" y2="176.78"/>
		<path class="st0" d="M212.97,139.64l33.53-11.67c-4.27-13.79-17.15-26.67-32.25-32.25c0,0-10.01,29.4-11.67,33.53"/>
	</g>
</g>
</svg>
